%TF.GenerationSoftware,KiCad,Pcbnew,9.0.6*%
%TF.CreationDate,2025-12-14T11:47:41+00:00*%
%TF.ProjectId,cheetoTile,63686565-746f-4546-996c-652e6b696361,rev?*%
%TF.SameCoordinates,Original*%
%TF.FileFunction,Soldermask,Top*%
%TF.FilePolarity,Negative*%
%FSLAX46Y46*%
G04 Gerber Fmt 4.6, Leading zero omitted, Abs format (unit mm)*
G04 Created by KiCad (PCBNEW 9.0.6) date 2025-12-14 11:47:41*
%MOMM*%
%LPD*%
G01*
G04 APERTURE LIST*
G04 Aperture macros list*
%AMRoundRect*
0 Rectangle with rounded corners*
0 $1 Rounding radius*
0 $2 $3 $4 $5 $6 $7 $8 $9 X,Y pos of 4 corners*
0 Add a 4 corners polygon primitive as box body*
4,1,4,$2,$3,$4,$5,$6,$7,$8,$9,$2,$3,0*
0 Add four circle primitives for the rounded corners*
1,1,$1+$1,$2,$3*
1,1,$1+$1,$4,$5*
1,1,$1+$1,$6,$7*
1,1,$1+$1,$8,$9*
0 Add four rect primitives between the rounded corners*
20,1,$1+$1,$2,$3,$4,$5,0*
20,1,$1+$1,$4,$5,$6,$7,0*
20,1,$1+$1,$6,$7,$8,$9,0*
20,1,$1+$1,$8,$9,$2,$3,0*%
%AMFreePoly0*
4,1,14,0.334644,0.085355,0.385355,0.034644,0.400000,-0.000711,0.400000,-0.050000,0.385355,-0.085355,0.350000,-0.100000,-0.350000,-0.100000,-0.385355,-0.085355,-0.400000,-0.050000,-0.400000,0.050000,-0.385355,0.085355,-0.350000,0.100000,0.299289,0.100000,0.334644,0.085355,0.334644,0.085355,$1*%
%AMFreePoly1*
4,1,14,0.385355,0.085355,0.400000,0.050000,0.400000,0.000711,0.385355,-0.034644,0.334644,-0.085355,0.299289,-0.100000,-0.350000,-0.100000,-0.385355,-0.085355,-0.400000,-0.050000,-0.400000,0.050000,-0.385355,0.085355,-0.350000,0.100000,0.350000,0.100000,0.385355,0.085355,0.385355,0.085355,$1*%
%AMFreePoly2*
4,1,14,0.085355,0.385355,0.100000,0.350000,0.100000,-0.350000,0.085355,-0.385355,0.050000,-0.400000,-0.050000,-0.400000,-0.085355,-0.385355,-0.100000,-0.350000,-0.100000,0.299289,-0.085355,0.334644,-0.034644,0.385355,0.000711,0.400000,0.050000,0.400000,0.085355,0.385355,0.085355,0.385355,$1*%
%AMFreePoly3*
4,1,14,0.034644,0.385355,0.085355,0.334644,0.100000,0.299289,0.100000,-0.350000,0.085355,-0.385355,0.050000,-0.400000,-0.050000,-0.400000,-0.085355,-0.385355,-0.100000,-0.350000,-0.100000,0.350000,-0.085355,0.385355,-0.050000,0.400000,-0.000711,0.400000,0.034644,0.385355,0.034644,0.385355,$1*%
%AMFreePoly4*
4,1,14,0.385355,0.085355,0.400000,0.050000,0.400000,-0.050000,0.385355,-0.085355,0.350000,-0.100000,-0.299289,-0.100000,-0.334644,-0.085355,-0.385355,-0.034644,-0.400000,0.000711,-0.400000,0.050000,-0.385355,0.085355,-0.350000,0.100000,0.350000,0.100000,0.385355,0.085355,0.385355,0.085355,$1*%
%AMFreePoly5*
4,1,14,0.385355,0.085355,0.400000,0.050000,0.400000,-0.050000,0.385355,-0.085355,0.350000,-0.100000,-0.350000,-0.100000,-0.385355,-0.085355,-0.400000,-0.050000,-0.400000,-0.000711,-0.385355,0.034644,-0.334644,0.085355,-0.299289,0.100000,0.350000,0.100000,0.385355,0.085355,0.385355,0.085355,$1*%
%AMFreePoly6*
4,1,14,0.085355,0.385355,0.100000,0.350000,0.100000,-0.299289,0.085355,-0.334644,0.034644,-0.385355,-0.000711,-0.400000,-0.050000,-0.400000,-0.085355,-0.385355,-0.100000,-0.350000,-0.100000,0.350000,-0.085355,0.385355,-0.050000,0.400000,0.050000,0.400000,0.085355,0.385355,0.085355,0.385355,$1*%
%AMFreePoly7*
4,1,14,0.085355,0.385355,0.100000,0.350000,0.100000,-0.350000,0.085355,-0.385355,0.050000,-0.400000,0.000711,-0.400000,-0.034644,-0.385355,-0.085355,-0.334644,-0.100000,-0.299289,-0.100000,0.350000,-0.085355,0.385355,-0.050000,0.400000,0.050000,0.400000,0.085355,0.385355,0.085355,0.385355,$1*%
G04 Aperture macros list end*
%ADD10RoundRect,0.250000X-0.337500X-0.475000X0.337500X-0.475000X0.337500X0.475000X-0.337500X0.475000X0*%
%ADD11RoundRect,0.090000X-0.660000X-0.360000X0.660000X-0.360000X0.660000X0.360000X-0.660000X0.360000X0*%
%ADD12R,1.700000X1.700000*%
%ADD13RoundRect,0.250000X0.475000X-0.337500X0.475000X0.337500X-0.475000X0.337500X-0.475000X-0.337500X0*%
%ADD14FreePoly0,0.000000*%
%ADD15RoundRect,0.050000X-0.350000X-0.050000X0.350000X-0.050000X0.350000X0.050000X-0.350000X0.050000X0*%
%ADD16FreePoly1,0.000000*%
%ADD17FreePoly2,0.000000*%
%ADD18RoundRect,0.050000X-0.050000X-0.350000X0.050000X-0.350000X0.050000X0.350000X-0.050000X0.350000X0*%
%ADD19FreePoly3,0.000000*%
%ADD20FreePoly4,0.000000*%
%ADD21FreePoly5,0.000000*%
%ADD22FreePoly6,0.000000*%
%ADD23FreePoly7,0.000000*%
%ADD24R,1.000000X1.000000*%
%ADD25RoundRect,0.250000X-0.475000X0.337500X-0.475000X-0.337500X0.475000X-0.337500X0.475000X0.337500X0*%
%ADD26RoundRect,0.250000X-0.412500X-0.650000X0.412500X-0.650000X0.412500X0.650000X-0.412500X0.650000X0*%
%ADD27C,1.700000*%
G04 APERTURE END LIST*
D10*
%TO.C,R3*%
X165287500Y-93200000D03*
X163212500Y-93200000D03*
%TD*%
D11*
%TO.C,D4*%
X205500000Y-35700000D03*
X205500000Y-39000000D03*
X210400000Y-39000000D03*
X210400000Y-35700000D03*
%TD*%
D12*
%TO.C,J4*%
X196540000Y-104000000D03*
X194000000Y-104000000D03*
X191460000Y-104000000D03*
X188920000Y-104000000D03*
%TD*%
D13*
%TO.C,R2*%
X170500000Y-83075000D03*
X170500000Y-81000000D03*
%TD*%
D11*
%TO.C,D25*%
X220500000Y-95700000D03*
X220500000Y-99000000D03*
X225400000Y-99000000D03*
X225400000Y-95700000D03*
%TD*%
%TO.C,D16*%
X160500000Y-80700000D03*
X160500000Y-84000000D03*
X165400000Y-84000000D03*
X165400000Y-80700000D03*
%TD*%
%TO.C,D9*%
X205500000Y-50700000D03*
X205500000Y-54000000D03*
X210400000Y-54000000D03*
X210400000Y-50700000D03*
%TD*%
%TO.C,D1*%
X160500000Y-35700000D03*
X160500000Y-39000000D03*
X165400000Y-39000000D03*
X165400000Y-35700000D03*
%TD*%
%TO.C,D2*%
X175500000Y-35700000D03*
X175500000Y-39000000D03*
X180400000Y-39000000D03*
X180400000Y-35700000D03*
%TD*%
%TO.C,D15*%
X220500000Y-65700000D03*
X220500000Y-69000000D03*
X225400000Y-69000000D03*
X225400000Y-65700000D03*
%TD*%
%TO.C,D19*%
X205500000Y-80700000D03*
X205500000Y-84000000D03*
X210400000Y-84000000D03*
X210400000Y-80700000D03*
%TD*%
%TO.C,D8*%
X190500000Y-50700000D03*
X190500000Y-54000000D03*
X195400000Y-54000000D03*
X195400000Y-50700000D03*
%TD*%
%TO.C,D20*%
X220500000Y-80700000D03*
X220500000Y-84000000D03*
X225400000Y-84000000D03*
X225400000Y-80700000D03*
%TD*%
D14*
%TO.C,U1*%
X168700000Y-89700000D03*
D15*
X168700000Y-90100000D03*
X168700000Y-90500000D03*
X168700000Y-90900000D03*
D16*
X168700000Y-91300000D03*
D17*
X169350000Y-91950000D03*
D18*
X169750000Y-91950000D03*
X170150000Y-91950000D03*
X170550000Y-91950000D03*
D19*
X170950000Y-91950000D03*
D20*
X171600000Y-91300000D03*
D15*
X171600000Y-90900000D03*
X171600000Y-90500000D03*
X171600000Y-90100000D03*
D21*
X171600000Y-89700000D03*
D22*
X170950000Y-89050000D03*
D18*
X170550000Y-89050000D03*
X170150000Y-89050000D03*
X169750000Y-89050000D03*
D23*
X169350000Y-89050000D03*
D12*
X170150000Y-90500000D03*
%TD*%
D11*
%TO.C,D6*%
X160500000Y-50700000D03*
X160500000Y-54000000D03*
X165400000Y-54000000D03*
X165400000Y-50700000D03*
%TD*%
D24*
%TO.C,J8*%
X215500000Y-90050000D03*
%TD*%
D11*
%TO.C,D11*%
X160500000Y-65700000D03*
X160500000Y-69000000D03*
X165400000Y-69000000D03*
X165400000Y-65700000D03*
%TD*%
D25*
%TO.C,C3*%
X162000000Y-88925000D03*
X162000000Y-91000000D03*
%TD*%
D11*
%TO.C,D5*%
X220500000Y-35700000D03*
X220500000Y-39000000D03*
X225400000Y-39000000D03*
X225400000Y-35700000D03*
%TD*%
%TO.C,D17*%
X175500000Y-80700000D03*
X175500000Y-84000000D03*
X180400000Y-84000000D03*
X180400000Y-80700000D03*
%TD*%
%TO.C,D7*%
X175500000Y-50700000D03*
X175500000Y-54000000D03*
X180400000Y-54000000D03*
X180400000Y-50700000D03*
%TD*%
D24*
%TO.C,J6*%
X170500000Y-45000000D03*
%TD*%
D11*
%TO.C,D22*%
X175500000Y-95700000D03*
X175500000Y-99000000D03*
X180400000Y-99000000D03*
X180400000Y-95700000D03*
%TD*%
D25*
%TO.C,C1*%
X164500000Y-88962500D03*
X164500000Y-91037500D03*
%TD*%
D26*
%TO.C,C2*%
X161437500Y-43000000D03*
X164562500Y-43000000D03*
%TD*%
D11*
%TO.C,D23*%
X190500000Y-95700000D03*
X190500000Y-99000000D03*
X195400000Y-99000000D03*
X195400000Y-95700000D03*
%TD*%
%TO.C,D12*%
X175500000Y-65700000D03*
X175500000Y-69000000D03*
X180400000Y-69000000D03*
X180400000Y-65700000D03*
%TD*%
%TO.C,D10*%
X220500000Y-50700000D03*
X220500000Y-54000000D03*
X225400000Y-54000000D03*
X225400000Y-50700000D03*
%TD*%
%TO.C,D14*%
X205500000Y-65700000D03*
X205500000Y-69000000D03*
X210400000Y-69000000D03*
X210400000Y-65700000D03*
%TD*%
%TO.C,D21*%
X160500000Y-95700000D03*
X160500000Y-99000000D03*
X165400000Y-99000000D03*
X165400000Y-95700000D03*
%TD*%
D24*
%TO.C,J9*%
X177500000Y-90000000D03*
%TD*%
D11*
%TO.C,D18*%
X190500000Y-80700000D03*
X190500000Y-84000000D03*
X195400000Y-84000000D03*
X195400000Y-80700000D03*
%TD*%
D12*
%TO.C,J1*%
X157000000Y-71120000D03*
X157000000Y-68580000D03*
X157000000Y-66040000D03*
X157000000Y-63500000D03*
%TD*%
D11*
%TO.C,D24*%
X205500000Y-95700000D03*
X205500000Y-99000000D03*
X210400000Y-99000000D03*
X210400000Y-95700000D03*
%TD*%
%TO.C,D13*%
X190500000Y-65700000D03*
X190500000Y-69000000D03*
X195400000Y-69000000D03*
X195400000Y-65700000D03*
%TD*%
%TO.C,D3*%
X190500000Y-35700000D03*
X190500000Y-39000000D03*
X195400000Y-39000000D03*
X195400000Y-35700000D03*
%TD*%
D12*
%TO.C,J5*%
X170500000Y-75120000D03*
D27*
X170500000Y-72580000D03*
X170500000Y-70040000D03*
X170500000Y-67500000D03*
X170500000Y-64960000D03*
X170500000Y-62420000D03*
X170500000Y-59880000D03*
%TD*%
D12*
%TO.C,J3*%
X229115000Y-63690000D03*
X229115000Y-66230000D03*
X229115000Y-68770000D03*
X229115000Y-71310000D03*
%TD*%
%TO.C,J2*%
X189170000Y-31885000D03*
X191710000Y-31885000D03*
X194250000Y-31885000D03*
X196790000Y-31885000D03*
%TD*%
D24*
%TO.C,J7*%
X215500000Y-45500000D03*
%TD*%
D10*
%TO.C,R1*%
X161925000Y-47000000D03*
X164000000Y-47000000D03*
%TD*%
M02*
