M48
; DRILL file {KiCad 9.0.6} date 2025-12-14T11:47:44+0000
; FORMAT={-:-/ absolute / metric / decimal}
; #@! TF.CreationDate,2025-12-14T11:47:44+00:00
; #@! TF.GenerationSoftware,Kicad,Pcbnew,9.0.6
; #@! TF.FileFunction,Plated,1,2,PTH
FMAT,2
METRIC
; #@! TA.AperFunction,Plated,PTH,ViaDrill
T1C0.300
; #@! TA.AperFunction,Plated,PTH,ComponentDrill
T2C1.000
%
G90
G05
T1
X157.0Y-74.0
X157.0Y-77.5
X158.0Y-80.5
X159.5Y-45.5
X160.0Y-49.0
X160.5Y-39.0
X160.5Y-54.0
X160.5Y-65.7
X160.5Y-69.0
X160.5Y-84.0
X160.5Y-99.0
X161.25Y-45.25
X162.0Y-88.925
X162.25Y-65.499
X163.0Y-72.0
X163.5Y-67.5
X163.659Y-48.836
X164.0Y-47.0
X164.5Y-88.962
X164.562Y-43.0
X164.875Y-62.428
X165.0Y-71.0
X165.287Y-93.2
X165.4Y-35.7
X165.4Y-39.0
X165.4Y-50.7
X165.4Y-54.0
X165.4Y-65.7
X165.4Y-69.0
X165.4Y-80.7
X165.4Y-84.0
X165.4Y-95.7
X165.4Y-99.0
X166.5Y-92.5
X166.8Y-91.35
X167.0Y-89.5
X167.25Y-78.5
X167.5Y-34.0
X167.862Y-32.947
X167.954Y-65.547
X168.0Y-70.0
X168.533Y-86.524
X168.75Y-78.25
X170.0Y-49.5
X170.0Y-52.0
X170.15Y-90.5
X170.5Y-81.0
X170.5Y-86.5
X172.0Y-33.0
X172.0Y-36.5
X172.0Y-88.75
X172.2Y-69.439
X172.5Y-90.25
X173.465Y-88.54
X173.5Y-87.5
X175.5Y-39.0
X175.5Y-54.0
X175.5Y-69.0
X175.5Y-84.0
X175.5Y-87.5
X175.5Y-99.0
X178.0Y-68.25
X178.5Y-77.75
X180.0Y-77.75
X180.4Y-35.7
X180.4Y-39.0
X180.4Y-50.7
X180.4Y-54.0
X180.4Y-65.7
X180.4Y-69.0
X180.4Y-80.7
X180.4Y-84.0
X180.4Y-95.7
X180.4Y-99.0
X182.75Y-71.25
X182.975Y-78.581
X183.0Y-69.5
X183.0Y-81.0
X186.5Y-64.0
X186.5Y-65.5
X186.5Y-67.25
X186.5Y-69.25
X187.5Y-96.0
X188.319Y-69.575
X188.5Y-94.0
X188.532Y-33.626
X190.5Y-39.0
X190.5Y-54.0
X190.5Y-69.0
X190.5Y-84.0
X190.5Y-99.0
X191.0Y-33.5
X194.0Y-85.5
X195.4Y-35.7
X195.4Y-39.0
X195.4Y-50.7
X195.4Y-54.0
X195.4Y-65.7
X195.4Y-69.0
X195.4Y-80.7
X195.4Y-84.0
X195.4Y-95.7
X195.4Y-99.0
X195.5Y-71.0
X198.5Y-66.0
X198.688Y-63.95
X205.5Y-39.0
X205.5Y-54.0
X205.5Y-69.0
X205.5Y-84.0
X205.5Y-99.0
X210.4Y-35.7
X210.4Y-39.0
X210.4Y-50.7
X210.4Y-54.0
X210.4Y-65.7
X210.4Y-80.7
X210.4Y-84.0
X210.4Y-95.7
X210.4Y-99.0
X210.5Y-71.0
X220.5Y-39.0
X220.5Y-54.0
X220.5Y-69.0
X220.5Y-84.0
X220.5Y-99.0
X224.75Y-73.75
X225.4Y-35.7
X225.4Y-39.0
X225.4Y-50.7
X225.4Y-54.0
X225.4Y-65.7
X225.4Y-69.0
X225.4Y-80.7
X225.4Y-84.0
X225.4Y-95.7
X225.4Y-99.0
X227.0Y-73.5
X227.25Y-66.0
T2
X157.0Y-63.5
X157.0Y-66.04
X157.0Y-68.58
X157.0Y-71.12
X170.5Y-59.88
X170.5Y-62.42
X170.5Y-64.96
X170.5Y-67.5
X170.5Y-70.04
X170.5Y-72.58
X170.5Y-75.12
X188.92Y-104.0
X189.17Y-31.885
X191.46Y-104.0
X191.71Y-31.885
X194.0Y-104.0
X194.25Y-31.885
X196.54Y-104.0
X196.79Y-31.885
X229.115Y-63.69
X229.115Y-66.23
X229.115Y-68.77
X229.115Y-71.31
M30
